# xmcd CD database file
#
# Track frame offsets:
#	150
#	23760
#	38385
#	51195
#	70230
#	94717
#	122952
#	136357
#	159142
#	183075
#	200865
#	217620
#	250445
#	276907
#	307582
#
# Disc length: 4331 seconds
#
# Revision: 1
# Processed by: cddbd v1.5PL3 Copyright (c) Steve Scherf et al.
# Submitted via: CDex 1.51
#
DISCID=c510e90f
DTITLE=Sads - GREATEST HITS  -BEST OF 5 YEARS-
DYEAR=2003
DGENRE=Rock
TTITLE0=TOKYO
TTITLE1=SANDY
TTITLE2=CRISIS
TTITLE3=赤裸々
TTITLE4=忘却の空
TTITLE5=ストロベリー
TTITLE6=NIGHTMARE
TTITLE7=FINALE
TTITLE8=ポルノ・スター
TTITLE9=ロザリオと薔薇
TTITLE10=HONEY
TTITLE11=Sherry
TTITLE12=Masquerade
TTITLE13=楽園
TTITLE14=HAPPY
EXTD=YEAR: 2003
EXTT0=
EXTT1=
EXTT2=
EXTT3=
EXTT4=
EXTT5=
EXTT6=
EXTT7=
EXTT8=
EXTT9=
EXTT10=
EXTT11=
EXTT12=
EXTT13=
EXTT14=
PLAYORDER=
